<svg xmlns="http://www.w3.org/2000/svg" xmlns:xlink="http://www.w3.org/1999/xlink" version="1.1" width="256" height="256" viewBox="0 0 256 256" xml:space="preserve">

<defs>
</defs>
<g style="stroke: none; stroke-width: 0; stroke-dasharray: none; stroke-linecap: butt; stroke-linejoin: miter; stroke-miterlimit: 10; fill: none; fill-rule: nonzero; opacity: 1;" transform="translate(1.4065934065934016 1.4065934065934016) scale(2.81 2.81)" >
	<circle cx="45" cy="45" r="45" style="stroke: none; stroke-width: 1; stroke-dasharray: none; stroke-linecap: butt; stroke-linejoin: miter; stroke-miterlimit: 10; fill: rgb(32,196,203); fill-rule: nonzero; opacity: 1;" transform="  matrix(1 0 0 1 0 0) "/>
	<path d="M 56.424 17.746 H 27.567 c -1.301 0 -2.366 1.065 -2.366 2.366 v 52.259 c 0 1.301 1.065 2.366 2.366 2.366 h 28.857 c 1.301 0 2.366 -1.065 2.366 -2.366 V 20.112 C 58.79 18.811 57.725 17.746 56.424 17.746 z M 36.343 19.847 h 11.306 v 1.9 H 36.343 V 19.847 z M 41.996 72.927 c -1.262 0 -2.285 -1.023 -2.285 -2.285 c 0 -1.262 1.023 -2.285 2.285 -2.285 s 2.285 1.023 2.285 2.285 C 44.28 71.904 43.257 72.927 41.996 72.927 z M 55.23 64.031 c 0 1.301 -1.065 2.366 -2.366 2.366 H 31.127 c -1.301 0 -2.366 -1.065 -2.366 -2.366 V 26.13 c 0 -1.301 1.065 -2.366 2.366 -2.366 h 21.737 c 1.301 0 2.366 1.065 2.366 2.366 V 64.031 z" style="stroke: none; stroke-width: 1; stroke-dasharray: none; stroke-linecap: butt; stroke-linejoin: miter; stroke-miterlimit: 10; fill: rgb(27,167,173); fill-rule: nonzero; opacity: 1;" transform=" matrix(1 0 0 1 0 0) " stroke-linecap="round" />
	<path d="M 59.433 14.737 H 30.576 c -1.301 0 -2.366 1.065 -2.366 2.366 v 52.259 c 0 1.301 1.065 2.366 2.366 2.366 h 28.857 c 1.301 0 2.366 -1.065 2.366 -2.366 V 17.103 C 61.799 15.802 60.734 14.737 59.433 14.737 z M 39.351 16.838 h 11.306 v 1.9 H 39.351 V 16.838 z M 45.004 69.918 c -1.262 0 -2.285 -1.023 -2.285 -2.285 c 0 -1.262 1.023 -2.285 2.285 -2.285 s 2.285 1.023 2.285 2.285 C 47.289 68.895 46.266 69.918 45.004 69.918 z M 58.239 61.022 c 0 1.301 -1.065 2.366 -2.366 2.366 H 34.136 c -1.301 0 -2.366 -1.065 -2.366 -2.366 V 23.121 c 0 -1.301 1.065 -2.366 2.366 -2.366 h 21.737 c 1.301 0 2.366 1.065 2.366 2.366 V 61.022 z" style="stroke: none; stroke-width: 1; stroke-dasharray: none; stroke-linecap: butt; stroke-linejoin: miter; stroke-miterlimit: 10; fill: rgb(255,255,255); fill-rule: nonzero; opacity: 1;" transform=" matrix(1 0 0 1 0 0) " stroke-linecap="round" />
</g>
</svg>